<?xml version="1.0" encoding="UTF-8"?>
<svg xmlns="http://www.w3.org/2000/svg" viewBox="0 0 100 133"
     width="600" height="800" stroke="#fff" fill="none"
     stroke-width="0.8" stroke-linecap="round" stroke-linejoin="round">
  <rect width="100" height="133" fill="#111"/>
  <path stroke="#00ff7f" stroke-width="0.6" d="
    M 35 1
    L 51 1
    Q 51 1 51 10
    C 53 11 54 12 58 17
    C 61 20 63 27 63 34
    Q 54 38 55 46
    L 54.5 57
    C 52 62 62 65 63 67
    Q 68 70 68.5 76
    L 68.3 85
    L 68.5 94
    C 68 108 64 116 59 119
    L 32 119
    C 26 119 16 98 19 78
    C 20 66 24 55 26 48
    C 27 43 26 38 25 34
    C 18 27 26 13 34 10
    L 35 9.5
    Q 36 1 35 1 Z
    M 63 34
    Q 54 38 55 46
    L 54.5 57
    Q 54.5 62 62 65
    C 68 66 68 62 67 56
    L 67 45
    Q 65 34 65 34 Z
  "/>
</svg>
