<?xml version="1.0" encoding="UTF-8"?>
<svg xmlns="http://www.w3.org/2000/svg" viewBox="0 0 100 133"
     width="600" height="800" stroke="#fff" fill="none"
     stroke-width="0.8" stroke-linecap="round" stroke-linejoin="round">
  <rect width="100" height="133" fill="#111"/>
  <path stroke="#00ff7f" stroke-width="0.6" d="
    M 40 7
    L 58 7
    Q 60 7 60 9
    L 60 16
    Q 61 17 62 18
    C 68 20 74 24 77 32
    C 80 40 81 48 78 55
    C 75 60 72 60 70 63
    C 70 72 71 84 71 96
    C 71 108 71 116 69 120
    Q 67 123 63 123
    L 26 123
    Q 20 123 18 120
    C 16 115 15 108 15 100
    L 15 80
    C 15 68 16 58 20 52
    C 24 46 26 44 26 42
    C 25 36 28 28 32 22
    C 35 18 37 16 38 14
    L 38 9
    Q 38 7 40 7 Z
    M 70 40
    Q 67 40 67 43
    L 67 58
    Q 67 62 70 62
    L 76 62
    Q 79 62 79 58
    L 79 43
    Q 79 40 76 40 Z
  "/>
</svg>
